<?xml version="1.0" encoding="UTF-8"?><svg id="Layer_1" xmlns="http://www.w3.org/2000/svg" xmlns:xlink="http://www.w3.org/1999/xlink" viewBox="0 0 87.7 77.7"><defs><style>.cls-1,.cls-2,.cls-3,.cls-4,.cls-5,.cls-6,.cls-7,.cls-8,.cls-9,.cls-10,.cls-11,.cls-12,.cls-13,.cls-14,.cls-15,.cls-16,.cls-17,.cls-18,.cls-19,.cls-20,.cls-21,.cls-22,.cls-23,.cls-24,.cls-25,.cls-26,.cls-27,.cls-28,.cls-29,.cls-30,.cls-31,.cls-32,.cls-33{fill:none;}.cls-2{opacity:.3;}.cls-3{opacity:.5;}.cls-4{opacity:.69;}.cls-34{fill:url(#linear-gradient);}.cls-5{clip-path:url(#clippath-8);}.cls-6{clip-path:url(#clippath-7);}.cls-7{clip-path:url(#clippath-6);}.cls-8{clip-path:url(#clippath-9);}.cls-9{clip-path:url(#clippath-5);}.cls-10{clip-path:url(#clippath-3);}.cls-11{clip-path:url(#clippath-4);}.cls-12{clip-path:url(#clippath-2);}.cls-13{clip-path:url(#clippath-1);}.cls-35{fill:#fff;}.cls-36{fill:#7472b4;}.cls-37{fill:#96b0db;}.cls-38{fill:#b7b8dc;}.cls-39{fill:#c2c2dc;}.cls-40{fill:#bfceea;}.cls-41{fill:#dedaec;}.cls-42{fill:#413780;}.cls-43{fill:#3e3380;}.cls-44{fill:#8092c9;}.cls-45{fill:#484848;}.cls-46{fill:#2c6dff;}.cls-47{fill:#393467;}.cls-48{fill:#28274f;}.cls-49{fill:#524098;}.cls-50{fill:#524299;}.cls-14{opacity:0;}.cls-15{clip-path:url(#clippath-13);}.cls-16{clip-path:url(#clippath-14);}.cls-17{clip-path:url(#clippath-12);}.cls-18{clip-path:url(#clippath-11);}.cls-19{clip-path:url(#clippath-18);}.cls-20{clip-path:url(#clippath-19);}.cls-21{clip-path:url(#clippath-17);}.cls-22{clip-path:url(#clippath-16);}.cls-23{clip-path:url(#clippath-10);}.cls-24{clip-path:url(#clippath-15);}.cls-25{clip-path:url(#clippath-25);}.cls-26{clip-path:url(#clippath-22);}.cls-27{clip-path:url(#clippath-23);}.cls-28{clip-path:url(#clippath-24);}.cls-29{clip-path:url(#clippath-21);}.cls-30{clip-path:url(#clippath-20);}.cls-31{clip-path:url(#clippath-26);}.cls-51{font-family:FiraSans-Bold, 'Fira Sans';font-size:7.5px;font-weight:700;}.cls-52{fill:url(#linear-gradient-8);}.cls-53{fill:url(#linear-gradient-9);}.cls-54{fill:url(#linear-gradient-3);}.cls-55{fill:url(#linear-gradient-4);}.cls-56{fill:url(#linear-gradient-2);}.cls-57{fill:url(#linear-gradient-6);}.cls-58{fill:url(#linear-gradient-7);}.cls-59{fill:url(#linear-gradient-5);}.cls-60{letter-spacing:-.029em;}.cls-61{letter-spacing:-.0079em;}.cls-62{fill:url(#linear-gradient-14);}.cls-63{fill:url(#linear-gradient-15);}.cls-64{fill:url(#linear-gradient-16);}.cls-65{fill:url(#linear-gradient-13);}.cls-66{fill:url(#linear-gradient-12);}.cls-67{fill:url(#linear-gradient-10);}.cls-68{fill:url(#linear-gradient-11);}.cls-32{clip-path:url(#clippath);}.cls-33{opacity:.15;}</style><clipPath id="clippath"><rect class="cls-1" x="-65.6" y="-3.3" width="225.9" height="80.9"/></clipPath><clipPath id="clippath-1"><rect class="cls-1" x="55.9" y="4.1" width="16.8" height="8.6"/></clipPath><clipPath id="clippath-2"><rect class="cls-1" x="58.1" y="14.2" width="17.1" height="9.6"/></clipPath><clipPath id="clippath-3"><rect class="cls-1" x="31.9" y="11.5" width="4.4" height="24.4"/></clipPath><clipPath id="clippath-4"><rect class="cls-1" x="19.3" y="11.6" width="20" height="33.8"/></clipPath><clipPath id="clippath-5"><rect class="cls-1" x="12.6" y="23.4" width="26.1" height="35.4"/></clipPath><clipPath id="clippath-6"><path class="cls-1" d="m26.1,24.6c-1,0-1.8.8-1.8,1.8v16.4c0,.6.4,1,1,1h31.8c.6,0,1-.4,1-1v-17.9c0-.6-.4-1-1-1,0,0-31,.7-31,.7Z"/></clipPath><linearGradient id="linear-gradient" x1="617.9034" y1="3395.1445" x2="651.8629" y2="3395.1445" gradientTransform="translate(-554.5815 -3161.6601) scale(.9412)" gradientUnits="userSpaceOnUse"><stop offset="0" stop-color="#f4908e"/><stop offset="1" stop-color="#f27064"/></linearGradient><clipPath id="clippath-7"><rect class="cls-1" x="59.8" y="24.2" width="16.2" height="9.4"/></clipPath><clipPath id="clippath-8"><rect class="cls-1" x="25.9" y="52.3" width="1.7" height="2.3"/></clipPath><clipPath id="clippath-9"><rect class="cls-1" x="30.1" y="52.8" width="41.4" height="1.6"/></clipPath><clipPath id="clippath-10"><rect class="cls-1" x="23.9" y="44.5" width="50.9" height="6.3"/></clipPath><clipPath id="clippath-11"><path class="cls-1" d="m67.1,27.6v3h.1l2.2-1.5v-.1l-2.3-1.4h0c.1-.1.1,0,0,0"/></clipPath><linearGradient id="linear-gradient-2" x1="616.821" y1="3386.3172" x2="619.1762" y2="3386.3172" gradientTransform="translate(-511.7947 -3158.1518) scale(.9412)" gradientUnits="userSpaceOnUse"><stop offset="0" stop-color="#f4908e"/><stop offset="1" stop-color="#f27064"/></linearGradient><clipPath id="clippath-12"><path class="cls-1" d="m24.6,53.5c.1,1,.9,1.7,1.9,1.7.9,0,1.7-.8,1.7-1.7s-.8-1.7-1.7-1.7c-1.1-.1-1.8.7-1.9,1.7"/></clipPath><linearGradient id="linear-gradient-3" x1="-9795.7481" y1="11480.853" x2="-9807.1534" y2="11480.853" gradientTransform="translate(-6980.4353 -12308.5675) rotate(-70.0403) scale(.9412)" gradientUnits="userSpaceOnUse"><stop offset="0" stop-color="#f4908e"/><stop offset="1" stop-color="#f27064"/></linearGradient><clipPath id="clippath-13"><path class="cls-1" d="m29.7,52.8c-.1,0-.2,0-.2.1s-.1.1-.1.2v1c0,.1,0,.2.1.2s.1.1.2.1h15.9v-1.6s-15.9,0-15.9,0Z"/></clipPath><linearGradient id="linear-gradient-4" x1="-6969.566" y1="10991.9396" x2="-6989.3106" y2="10991.9396" gradientTransform="translate(-4815.535 -11203.0607) rotate(-55.7595) scale(.9412)" gradientUnits="userSpaceOnUse"><stop offset="0" stop-color="#f4908e"/><stop offset="1" stop-color="#f27064"/></linearGradient><clipPath id="clippath-14"><path class="cls-1" d="m17.5,73c-.1.2,0,.4.2.5.1.1.2.1.4.1.2.1.5-.1.6-.3l.5-1-1.3-.6s-.4,1.3-.4,1.3Z"/></clipPath><linearGradient id="linear-gradient-5" x1="616.8466" y1="3385.7036" x2="618.4635" y2="3385.7036" gradientTransform="translate(-561.4611 -3113.9243) scale(.9412)" gradientUnits="userSpaceOnUse"><stop offset="0" stop-color="#f8b9ba"/><stop offset="1" stop-color="#f4908e"/></linearGradient><clipPath id="clippath-15"><path class="cls-1" d="m16.3,73.7c.1.4.3.7.5,1,.1.1.3.2.4.2h.4c.2-.1.3-.2.2-.4l-.4-1.3s-1.1.5-1.1.5Z"/></clipPath><linearGradient id="linear-gradient-6" x1="615.621" y1="3385.568" x2="617.139" y2="3385.568" gradientTransform="translate(-562.5783 -3112.3466) scale(.9412)" gradientUnits="userSpaceOnUse"><stop offset="0" stop-color="#f8b9ba"/><stop offset="1" stop-color="#f4908e"/></linearGradient><clipPath id="clippath-16"><path class="cls-1" d="m16.7,55.4s.2,1.7,2.6,2.6c.6.2,1.2.3,1.8.1-.2-.5-.2-1.1,0-1.7-2,.1-1.4-3-1.4-3.2.1.1-3,2.2-3,2.2Z"/></clipPath><linearGradient id="linear-gradient-7" x1="-11314.2086" y1="11450.0795" x2="-11333.2506" y2="11450.0795" gradientTransform="translate(-8289.3838 -12677.5567) rotate(-77.9916) scale(.9411)" gradientUnits="userSpaceOnUse"><stop offset="0" stop-color="#e0483d"/><stop offset="1" stop-color="#e8625b"/></linearGradient><clipPath id="clippath-17"><path class="cls-1" d="m23.3,55.5c-.7.5-1.5.9-2.3,1-.2.6-.1,1.2,0,1.7.9-.2,1.7-.8,2.3-1.5.1-.1.4-.1.5,0,.2.1.3.3.3.5,0,.4.4.5.4.3,0-.3-.1-.6-.1-.9l1.1,1.2c.2.2.5.2.7,0-.3-.8-.7-1.6-1.3-2.2-.2-.2-.5-.2-.8-.2-.2,0-.5.1-.8.1"/></clipPath><linearGradient id="linear-gradient-8" x1="613.7864" y1="3386.1134" x2="619.3136" y2="3386.1134" gradientTransform="translate(-558.0409 -3130.31) scale(.9412)" gradientUnits="userSpaceOnUse"><stop offset="0" stop-color="#f8b9ba"/><stop offset="1" stop-color="#f4908e"/></linearGradient><clipPath id="clippath-18"><path class="cls-1" d="m11.7,48.4c-2.9,4.7-3.2,11-3.2,11,1.6,1.3,3.7,1.8,5.7,1.3.6-2.3,5.3-6.3,5.8-7.2.3-.6.3-1.2,0-1.8-3.5-2.9-6-3.4-7.3-3.4-.3,0-.7,0-1,.1"/></clipPath><linearGradient id="linear-gradient-9" x1="-11308.9928" y1="11454.9712" x2="-11328.0338" y2="11454.9712" gradientTransform="translate(-8299.2481 -12674.7081) rotate(-77.9916) scale(.9411)" gradientUnits="userSpaceOnUse"><stop offset="0" stop-color="#f4908e"/><stop offset="1" stop-color="#f27064"/></linearGradient><clipPath id="clippath-19"><path class="cls-1" d="m16,49.1c-.2.2-.2.4-.1.6.3.7,1,1,1.7.9.3,0,.6-.2.7-.5l1-2.1-2-.7s-1.3,1.8-1.3,1.8Z"/></clipPath><linearGradient id="linear-gradient-10" x1="614.2428" y1="3386.4505" x2="617.91" y2="3386.4505" gradientTransform="translate(-563.0291 -3138.2773) scale(.9412)" gradientUnits="userSpaceOnUse"><stop offset="0" stop-color="#f8b9ba"/><stop offset="1" stop-color="#f4908e"/></linearGradient><clipPath id="clippath-20"><path class="cls-1" d="m6.2,57.3c.2.5.6.9,1.1,1.2.4-1.2,1.2-2.1,2.3-2.6-.3-1.4,3-4.4,3-4.4l-.9-2.9c0-.1-7.3,4.8-5.5,8.7"/></clipPath><linearGradient id="linear-gradient-11" x1="-11311.3248" y1="11452.6894" x2="-11330.3658" y2="11452.6894" gradientTransform="translate(-8302.7291 -12677.6017) rotate(-77.9916) scale(.9411)" gradientUnits="userSpaceOnUse"><stop offset="0" stop-color="#f4908e"/><stop offset="1" stop-color="#f27064"/></linearGradient><clipPath id="clippath-21"><path class="cls-1" d="m12.5,51c-.1.1-3.4,3.1-3.1,4.5,0,0,0,.1.1.1h.1c.1,0,0,0,0-.1-.3-1.3,3-4.3,3-4.3,0-.0667-.0333-.1333-.1-.2q-.0132-.0132,0,0h0"/></clipPath><linearGradient id="linear-gradient-12" x1="-11315.3443" y1="11449.6296" x2="-11334.3853" y2="11449.6296" gradientTransform="translate(-8296.9205 -12680.2208) rotate(-77.9916) scale(.9411)" gradientUnits="userSpaceOnUse"><stop offset="0" stop-color="#e0483d"/><stop offset="1" stop-color="#e8625b"/></linearGradient><clipPath id="clippath-22"><path class="cls-1" d="m14.7,55.7s-4,1.6-5,.4c-.1-.1-.1-.2-.1-.3-1.1.6-1.9,1.5-2.3,2.6,2.2,1.4,5.8-.8,6.8-1.4.2-.1.4-.1.5-.1.5.1.9.2,1.4.1.2,0,.5.3.8.7s.8.9,1.3.6c0,0-.6-2.6-2.8-2.6-.2-.1-.4-.1-.6,0"/></clipPath><linearGradient id="linear-gradient-13" x1="343.9759" y1="4162.1229" x2="361.1799" y2="4162.1229" gradientTransform="translate(-596.4347 -3826.1406) rotate(-4.0898) scale(.9412)" gradientUnits="userSpaceOnUse"><stop offset="0" stop-color="#f8b9ba"/><stop offset="1" stop-color="#f4908e"/></linearGradient><clipPath id="clippath-23"><path class="cls-1" d="m17.9,45.2c-.4.5-.2,2.1-.2,2.1,0,1,.8,1.9,1.8,2.1,1.1.2,1.1-.4,1.4-1.3.2-.9.3-1.9.3-2.7-.8-.2-1.6-.3-2.5-.3-.4-.1-.7-.1-.8.1"/></clipPath><linearGradient id="linear-gradient-14" x1="-594.0304" y1="6056.2546" x2="-599.4883" y2="6056.2546" gradientTransform="translate(-879.6738 -5608.8046) rotate(-14.649) scale(.9411)" gradientUnits="userSpaceOnUse"><stop offset="0" stop-color="#f8b9ba"/><stop offset="1" stop-color="#f4908e"/></linearGradient><clipPath id="clippath-24"><path class="cls-1" d="m17.5,44.4c0,.1-.1.1,0,0h0c-.2-.1-.4-.2-.6-.1-.5.2-.6.9-.1,1.8v.1c0,.1,0,0-.1,0-.2,0-.5.2-.1.6.2.3.5.5.9.6h.1l.3-.8s.1-.1.1,0l.3.1h.1s-.1-1.3.5-1.3,2.5.4,3-.1c.3-.2.5-.5.5-.9s-.1-.7-.3-1h-.1l-.1.1h-.1v-.2h-.1c-.5.3-1.1.3-1.6.1-.4-.1-.7-.1-1.1-.1-.6.3-1.2.6-1.5,1.1"/></clipPath><linearGradient id="linear-gradient-15" x1="-638.7694" y1="6122.5447" x2="-638.7694" y2="6128.9436" gradientTransform="translate(-897.6014 -5677.5754) rotate(-15.0565) scale(.9412)" gradientUnits="userSpaceOnUse"><stop offset="0" stop-color="#201b59"/><stop offset="1" stop-color="#2d2d83"/></linearGradient><clipPath id="clippath-25"><path class="cls-1" d="m17.8,45.9c-.6.1-.2,1.3.1,1.5l.3-.4s.1-1.1-.4-1.1h0"/></clipPath><linearGradient id="linear-gradient-16" x1="-594.3011" y1="6054.407" x2="-599.759" y2="6054.407" gradientTransform="translate(-879.2022 -5608.1215) rotate(-14.649) scale(.9411)" gradientUnits="userSpaceOnUse"><stop offset="0" stop-color="#f8b9ba"/><stop offset="1" stop-color="#f4908e"/></linearGradient><clipPath id="clippath-26"><rect class="cls-1" x="17.8606" y="9.9832" width="67.2" height="32.6483"/></clipPath></defs><g id="eSd1kOi5Ly61" shape-rendering="geometricPrecision" text-rendering="geometricPrecision"><g class="cls-32"><ellipse class="cls-46" cx="45.7" cy="40.6" rx="37.6" ry="35.3"/><g class="cls-14"><g class="cls-2"><g class="cls-13"><path class="cls-37" d="m55.7,13c-.1,0-.2-.2-.2-.3,0-.3.1-.6.1-.9,0-.1.1-.1.1-.2s.1-.1.2,0h0c.1,0,.1.1.2.1s0,.1,0,.2c-.1.3-.1.5-.1.8,0,.0667-.0333.1333-.1.2,0,.1-.1.1-.2.1h0m.6-2.2h0c-.1,0-.1-.1,0,0l-.1-.3c.1-.3.2-.5.3-.8.1-.1.2-.2.3-.1s.2.2.1.3c-.1.2-.2.5-.3.8-.1.1-.2.1-.3.1m1-1.9h0c-.2-.1-.2-.2-.2-.4.2-.2.3-.5.5-.7.1-.1.3-.1.4,0,0,0,.1.1.1.2s0,.1-.1.2c-.2.2-.3.5-.5.7,0,0-.1.1-.2,0m1.4-1.7s-.1,0,0,0c-.2-.2-.2-.4-.1-.5.2-.2.4-.4.7-.6.1-.1.2,0,.3.1s.1.2,0,.3c-.2.2-.4.4-.6.5-.2.2-.3.3-.3.2m1.6-1.3c-.1,0-.1-.1-.2-.1v-.2c0-.1.1-.1.1-.2.3-.1.5-.3.8-.4.1-.1.3,0,.4.1v.2c0,.1-.1.1-.1.1-.2.1-.5.3-.7.4-.1.1-.2.1-.3.1m2-.9c-.1,0-.1-.1-.2-.2,0-.1,0-.3.2-.3.3-.1.6-.2.8-.2.1,0,.3.1.3.2s-.1.3-.2.3c-.3.1-.5.1-.9.2q-.079.0198,0,0m9.1,1.5h0c-.3-.2-.5-.3-.8-.5-.1-.1-.1-.2-.1-.4.1-.1.2-.2.4-.1.2.2.5.3.7.5.1.1.1.2.1.3s-.2.2-.3.2m-7-1.9c-.1,0-.2-.1-.2-.2s.1-.3.2-.3h.9c.1,0,.3.1.3.2s0,.1-.1.2-.1.1-.2.1h-.9m5.1.8h0c-.2-.1-.5-.2-.8-.3,0-.1-.1-.1,0-.2s.2-.2.3-.1c.2.1.4.2.7.2.1,0,.2.2.2.3s-.2.2-.4.1m-2.9-.7c-.1,0-.2-.1-.2-.3,0-.1.1-.2.3-.2l.9.1h0c.1,0,.1.1.2.1s0,.1,0,.2-.1.1-.1.2-.1.1-.2,0c-.3,0-.6-.1-.9-.1h0"/><path class="cls-37" d="m72.7,7.6s-.0005,0,0,0l-.4-.4c-.1-.1-.1-.3,0-.3s.2-.1.3,0l.3.3c.1.1.1.3,0,.4h-.2"/></g></g><g class="cls-2"><g class="cls-12"><path class="cls-37" d="m75.1,14.8c-.1,0-.2-.1-.2-.3v-.4c0-.1.1-.3.3-.2.1,0,.3.1.2.3v.4c0,.0667-.0333.1333-.1.2-.1.1-.1,0-.2,0h0"/><path class="cls-37" d="m63.2,23.7l-.3-.1c-.1,0-.2-.2-.2-.3s.1-.1.1-.2.1,0,.2,0c.3.1.5.1.8.2.1,0,.2.1.2.2v.2s-.1.1-.2.1l-.6-.1m-1.6-.5h0c-.3-.1-.5-.2-.8-.4l-.1-.1v-.2c0-.1.2-.2.3-.1.2.1.5.2.7.3.1.1.2.2.1.3,0,.1-.1.2-.2.2m3.3.7c-.1,0-.2-.1-.2-.3,0-.1.1-.2.3-.2h.8c.1,0,.3.1.3.2s-.1.3-.2.3h-1m-5.3-1.8h0c-.3-.2-.5-.3-.8-.5-.1-.1-.1-.2-.1-.3s.1-.2.2-.2.2,0,.3.1c.2.2.4.3.7.5.1,0,.1.1.1.2s0,.1-.1.2c0,0-.2.1-.3,0m7.5,1.8c-.1,0-.2-.1-.2-.2v-.2c0-.1.1-.1.2-.1.3,0,.5-.1.8-.2.1,0,.3.1.3.2v.2c0,.1-.1.1-.2.1-.3.1-.6.1-.9.2h0m2.1-.7c-.1,0-.1-.1-.2-.2v-.2c0-.1.1-.1.1-.1.2-.1.5-.2.7-.3.1-.1.2-.1.3,0s.1.1.1.2-.1.2-.2.2c-.3.1-.6.2-.8.4h0m1.8-1c-.0667,0-.1333-.0333-.2-.1-.1-.1-.1-.3.1-.4.2-.2.4-.3.7-.5,0,0,.1-.1.2-.1s.1,0,.2.1c0,0,.1.1.1.2s0,.1-.1.2c-.2.2-.4.4-.7.5-.1,0-.2,0-.3.1m1.7-1.6s-.1,0,0,0c-.1-.1-.2-.2-.2-.3s0-.1.1-.2c.2-.2.4-.4.5-.6.1-.1.2-.1.4,0,.1.1.1.3,0,.4-.2.2-.4.5-.6.7,0,0-.1.1-.2,0m1.2-1.6h0c-.1,0-.2-.1-.2-.2v-.2c.1-.2.3-.5.4-.7.1-.1.2-.2.3-.1s.2.2.1.3c-.1.3-.3.5-.4.8,0,.0667-.0667.1-.2.1m.8-2h0c-.1,0-.2-.2-.2-.3.1-.2.1-.4.2-.6s0-.1,0-.2.1-.1.1-.2.1-.1.2,0c.1,0,.2.2.2.3v.2c0,.1-.1.4-.2.6,0,.1-.2.2-.3.2"/><path class="cls-37" d="m58.1,20.6s-.0005,0,0,0l-.4-.4c-.1-.1,0-.2.1-.3s.2-.1.3,0l.3.3s.1.1.1.2,0,.1-.1.2h-.3"/></g></g></g><path class="cls-38" d="m59.1,17.9h0l1.5-.1c.4.5,1,1,1.5,1.4v1.5c0,.0667.0333.1.1.1l1.6.6h.1l.9-1.2c.7.1,1.3,0,2-.1l1,1h.1l1.6-.8.1-.1-.2-1.5c.5-.4,1-.9,1.4-1.5h1.4c.0667,0,.1-.0333.1-.1l.7-1.7v-.1l-1.2-.9c.1-.7,0-1.3-.1-2l1-1v-.2l-.8-1.6-.1-.1-1.3.3c-.4-.5-.9-1-1.4-1.4v-1.3c0-.0667-.0333-.1-.1-.1l-1.7-.6h-.3l-.9,1.2c-.7-.1-1.3,0-2,.1l-1-1h-.1l-1.6.8-.1.1.2,1.5c-.6.4-1,1-1.4,1.5h-1.5s-.1,0-.1.1l-.6,1.6v.1l1.1.9c-.1.7,0,1.4.1,2l-1,1v.1c.2-.2,1,1.5,1,1.5Z"/><path class="cls-40" d="m65.1,15.5c-.9-.2-1.4-1.1-1.3-2s.9-1.5,1.8-1.5c1,.1,1.7.9,1.6,1.9s-.9,1.7-1.9,1.6h-.2m.7-2.9h-.2c-.7-.1-1.4.5-1.5,1.2s.5,1.4,1.2,1.5,1.4-.5,1.4-1.2c0-.4-.1-.7-.3-1-.1-.2-.4-.4-.6-.5"/><path class="cls-40" d="m64.5,18l-.4-.2h-.1l-.6-.3h0v-.1h.1c.2.2.5.3.8.4,1.3.5,2.7.2,3.8-.7.6-.5,1.1-1.1,1.3-1.9,0-.1.1-.3.1-.4.2-.9.1-1.9-.3-2.6-.7-1.5-2.2-2.4-3.8-2.4s-3,1.1-3.6,2.6c0,.1-.1.3-.1.4-.1.6-.1,1.2,0,1.8,0,0,0,.1-.1.1h-.1v-.1c-.1-.6-.1-1.3,0-1.9,0-.1.1-.3.1-.4.8-2.2,3.2-3.3,5.4-2.5,2.1.7,3.2,2.8,2.7,5,0,.1-.1.3-.1.4-.4,1.1-1.2,2-2.2,2.4-.9.5-1.9.6-2.9.4"/><g class="cls-14"><path class="cls-37" d="m51,23.5c-.1,0-.1-.1-.1-.2s.1-.1.2-.1c.3.1.5.1.8.1,0,0,.1,0,.1.1v.1c0,.1-.1.1-.2.1-.3,0-.6-.1-.8-.1h0m-.8-.3h0c-.3-.1-.5-.2-.8-.3-.1,0-.1-.1-.1-.2s.1-.1.2-.1c.2.1.5.2.7.3.1,0,.1.1,0,.3.2,0,.1,0,0,0m2.4.4c-.1,0-.1-.1-.1-.2s.1-.1.1-.1c.3,0,.5,0,.8-.1h.1l.1.1c0,.1,0,.2-.1.2-.3.1-.6.1-.9.1h0m-3.7-1h0c-.2-.2-.4-.3-.7-.5v-.2c0-.1.1-.1.2,0,.2.2.4.3.6.5,0,.0667-.0333.1333-.1.2.2,0,.1,0,0,0m5.4.8c-.1,0-.1-.1,0,0-.1-.2-.1-.3,0-.3.3-.1.5-.2.8-.2h.1s.1,0,.1.1,0,.2-.1.2c-.4.1-.7.2-.9.2h0m1.3-.6s-.1,0,0,0c-.1-.1-.1-.2,0-.3.2-.1.5-.3.7-.4.1,0,.2,0,.2.1v.2c-.2.2-.5.3-.7.4h-.2m1.3-1h0c-.1-.1-.1-.2-.1-.2.2-.2.4-.4.5-.6h.2c.1,0,.1.1,0,.2-.2.2-.4.4-.6.6q-.0395.0395,0,0"/><path class="cls-37" d="m47.6,21.5h0l-.3-.3v-.2c.1-.1.2-.1.2,0l.3.3c.1.1.1.2,0,.2h-.2"/><path class="cls-37" d="m45.9,17.4c-.1,0-.1-.1,0,0l-.1-.5c0-.1.1-.2.2-.2s.2.1.2.2v.5h-.3"/><path class="cls-37" d="m45.9,16.2c-.1,0-.1-.1-.1-.2,0-.2,0-.5.1-.7v-.1c0-.0667.0333-.1.1-.1h.2c.1,0,.1.1,0,.2v.1c0,.2-.1.4-.1.6,0,0,0,.1-.2.2,0-.1.1,0,0,0h0m.4-1.5h0c-.1,0-.1-.1-.1-.2.1-.3.2-.5.3-.8l.1-.1h.1c.1,0,.1.1.1.2-.1.2-.2.5-.3.7,0,.2-.1.2-.2.2m.8-1.4h0c-.1-.1-.1-.2-.1-.2.2-.2.3-.4.5-.6,0-.1.1-.1.2-.1s.1.1.1.1c0,0,0,.1-.1.2-.2.2-.3.4-.6.6.2,0,.1,0,0,0m1.1-1.2h0c-.0667-.0667-.1-.1333-.1-.2v-.1c.2-.2.4-.3.7-.5.1-.1.2-.1.2,0,.1.1.1.2,0,.2-.2.1-.4.3-.8.6.2,0,.1,0,0,0m1.4-1s-.0005,0,0,0c-.1-.2-.1-.3,0-.3.3-.1.5-.2.8-.3.1,0,.2,0,.2.1s0,.2-.1.2c-.4.1-.6.2-.9.3h0m1.5-.5c-.1,0-.1-.1,0,0-.1-.2-.1-.3,0-.3.3-.1.6-.1.8-.1.1,0,.2.1.2.1v.1s-.1.1-.2.1c-.2,0-.5,0-.8.1h0m1.6-.1c-.1,0-.1-.1-.1-.2s.1-.2.2-.1c.3,0,.6,0,.8.1.1,0,.1.1.1.2s-.1.1-.2.1c-.3,0-.5-.1-.8-.1h0m2.3.6h0c-.2-.1-.4-.2-.7-.2h-.1c-.1,0-.1-.1-.1-.2s.1-.1.2-.1h.1c.2.1.5.2.7.2,0,0,.1,0,.1.1v.1c0,.1-.1.1-.2.1"/></g><path class="cls-38" d="m48.2,19.6s.1,0,0,0l1.1-.1c.3.4.6.7,1,.9v1s0,.1.1.1l1.1.4h.1l.6-.8c.5,0,.9,0,1.4-.1l.7.7h.1l1-.5v-.2l-.1-1c.4-.3.7-.6.9-1h1.1l.4-1.1v-.1l-.8-.6c0-.5,0-.9-.1-1.4l.7-.7v-.1l-.5-1h-.1l-1,.1c-.3-.4-.6-.7-1-.9v-1s0-.1-.1-.1l-1.1-.4h-.1l-.6.8c-.5,0-.9,0-1.4.1l-.7-.7h-.1l-1,.5v.1l.1,1c-.4.3-.7.6-.9,1h-1.1l-.4,1.1v.1l.7.6c0,.5,0,.9.1,1.4l-.7.7v.1c0,.1.6,1.1.6,1.1Z"/><path class="cls-40" d="m52.2,18c-.2-.1-.5-.2-.6-.4-.2-.2-.3-.6-.3-.9s.2-.6.4-.8.6-.3.9-.3c.5,0,.9.4,1,.8.1.5,0,1-.4,1.3-.2.2-.6.3-1,.3h0m.5-2h0c-.6,0-1,.3-1.1.8,0,.2.1.5.2.6.3.4.9.4,1.2.1.2-.1.3-.4.3-.6.1-.4-.2-.8-.6-.9"/><path class="cls-40" d="m51.8,19.7l-.3-.1c-.2-.1-.4-.2-.5-.3h0c-.1,0-.1-.1-.1-.2h0c0-.1.1-.1.2,0,.2.1.3.2.5.2h0c.4.1.9.2,1.3.1.2,0,.5-.1.7-.2h0c.6-.3,1.1-.9,1.3-1.5,0-.1.1-.2.1-.3.4-1.4-.5-2.7-1.8-3.1s-2.7.4-3.2,1.7c0,.1-.1.2-.1.3-.1.4-.1.8,0,1.2v.1c0,.1-.1.1-.1.1-.1,0-.2,0-.2-.1-.1-.4-.1-.9,0-1.3,0-.1.1-.2.1-.3.4-1.2,1.4-2,2.6-2.1s2.4.6,2.8,1.7c.3.6.4,1.3.2,2,0,.1,0,.2-.1.3-.5,1.4-1.9,2.1-3.4,1.8"/><path class="cls-49" d="m36.2,40.3s10.3-9.4,3.3-22c-4.4-7.8-5.2-12.6-5.2-15.1,0-.8-.9-1.3-1.4-.9-3.9,3.8-12.7,15.2,3.3,38"/><g class="cls-3"><g class="cls-10"><path class="cls-35" d="m32.5,11s-.1-.1,0,0c-.7,2.3-2,12.2,3.9,25.4-1.2-3.3-5.1-15.4-3.9-25.4"/></g></g><path class="cls-41" d="m42.8,47.8S34.5,17.7,18.9,1.7c-.5-.5-1.2-.7-1.9-.5s-1.2.7-1.4,1.4c-2.2,9.8-6.1,39.3,27.2,45.2"/><g class="cls-3"><g class="cls-11"><path class="cls-35" d="m39.7,45.9h0c-3.2-2.1-15.6-12.8-20.8-35,0,0,0-.1.1-.1s.1,0,.1.1c1.5,5.2,8.4,24,20.6,35"/></g></g><path class="cls-49" d="m42.9,60.9S28,30.6,11.1,12.4c-1.1-1.2-3-.4-3.4,1.4-2.9,10.8-2.5,44.3,35.2,47.1"/><g class="cls-3"><g class="cls-9"><path class="cls-35" d="m39.2,59.2c.1.1,0,.2-.1.2-3.7-2.1-18.6-12.6-27-36.7v-.1h.1c.0667,0,.1.0333.1.1,2.4,5.5,12.1,25.7,26.9,36.5"/></g></g><path class="cls-42" d="m16.7,20.6v35c0,2.8,2.3,5.2,5.2,5.3,12.7.3,45.7,1.2,57.7,1,2.2,0,3.8-1.8,3.8-3.8.2-8.1.6-27.6-.8-36.7-.3-1.9-2-3.3-3.8-3.4-10.6-.4-46.2-1.5-58.3-1.2-2,0-3.7,1.8-3.8,3.8"/><path class="cls-44" d="m19.2,21.8v33.2c0,1.7,1.4,3,3,3l56,.9c.8,0,1.6-.3,2.2-.8s.9-1.3.9-2.2l.1-32.9c0-1.2-1-2.2-2.2-2.2l-57.5-1.5c-.7,0-1.3.2-1.7.7s-.8,1.2-.8,1.8"/><path class="cls-40" d="m78.2,57.2H22.2c-1-.1-1.9-1-1.8-2v-31.8c0-.5.2-1,.5-1.4s.8-.6,1.3-.6l56.1,1c.9.1,1.6.8,1.6,1.8v31.3c0,.5-.1.9-.5,1.3s-.7.4-1.2.4"/><g class="cls-7"><rect class="cls-34" x="24.4" y="24" width="33.7" height="19.7"/></g><path class="cls-40" d="m39.8,31.1v5.9c0,.0667.0333.1333.1.2.1.1.1,0,.2,0l4.4-3.1.1-.1s0-.1-.1-.1l-4.4-2.9h-.2c-.0667,0-.1.0333-.1.1"/><g class="cls-4"><g class="cls-6"><path class="cls-35" d="m75.7,33.8h-15.8c-.1,0-.3,0-.4-.1s-.2-.2-.2-.4v-8.1c0-.5.4-.9.9-.9l15.4-.3c.1,0,.3,0,.4.1s.2.2.2.3v8.9c0,.1-.1.3-.2.4s-.2.1-.3.1"/></g></g><g class="cls-4"><g class="cls-5"><path class="cls-35" d="m25.8,52.4v2.2h0l1.6-1.1v-.2l-1.6-.9s.0005-.0005,0,0c.1-.1,0,0,0,0"/></g></g><g class="cls-4"><g class="cls-8"><path class="cls-35" d="m72,54.3H29.7c-.2,0-.3-.1-.3-.3v-.9c0-.2.1-.3.3-.3h42.3c.2,0,.3.1.3.3v.9c.1.2-.1.3-.3.3"/></g></g><g class="cls-4"><g class="cls-23"><path class="cls-35" d="m75.2,50.9H23.5c-.3,0-.6-.3-.6-.6v-5.3c0-.3.3-.6.6-.6h51.7c.3,0,.6.3.6.6v5.3c0,.2-.1.3-.2.4s-.2.2-.4.2"/></g></g><path class="cls-44" d="m32.4,50.4h-8.5c-.0667,0-.1333-.0333-.2-.1s-.1-.1333-.1-.2v-4.4c0-.3.2-.5.5-.5l8.3-.2c.1,0,.3.1.3.3v4.8c0,.0667-.0333.1333-.1.2s-.1333.1-.2.1"/><path class="cls-44" d="m42.4,50.4h-8.6c-.0667,0-.1333-.0333-.2-.1s-.1-.1333-.1-.2v-4.4c0-.3.2-.5.5-.5l8.3-.2c.1,0,.3.1.3.3v4.8c0,.1,0,.2-.2.3h0"/><path class="cls-44" d="m52.4,50.4h-8.5c-.0667,0-.1333-.0333-.2-.1s-.1-.1333-.1-.2v-4.4c0-.3.2-.5.5-.5l8.3-.2c.1,0,.3.1.3.3v4.8c0,.0667-.0333.1333-.1.2-.1.1-.2.1-.2.1"/><path class="cls-44" d="m62.3,50.4h-8.5c-.0667,0-.1333-.0333-.2-.1s-.1-.1333-.1-.2v-4.4c0-.3.2-.5.5-.5l8.3-.2c.1,0,.3.1.3.3v4.8c0,.1-.2.3-.3.3"/><path class="cls-44" d="m72.1,50.4h-8.5c-.2,0-.3-.1-.3-.3v-4.4c0-.3.2-.5.5-.5l8.3-.2c.1,0,.3.1.3.3v4.8c0,.1-.1.3-.3.3"/><g class="cls-18"><rect class="cls-56" x="67.1" y="27.5" width="2.4" height="3.1"/></g><g class="cls-17"><polygon class="cls-54" points="23.5 54.7 25 50.6 29.2 52.1 27.7 56.2 23.5 54.7"/></g><g class="cls-15"><polygon class="cls-55" points="28.6 53.9 34.5 45.2 46.2 53.3 40.4 61.9 28.6 53.9"/></g><rect class="cls-36" x="12.8" y="65.1" width=".9" height="9.9"/><path class="cls-36" d="m9.3,75.2h8v-.3c0-.0667-.0333-.1333-.1-.2-.1-.1-.2-.1-.2-.1h-7.4c-.1,0-.2,0-.2.1s-.1.1-.1.2c0,0,0,.3,0,.3Z"/><path class="cls-36" d="m8.8,62.8h8.6c.6,0,1.1.5,1.1,1.1v1c0,.6-.5,1.1-1.1,1.1h-8.6c-.6,0-1.1-.5-1.1-1.1v-1c0-.6.5-1.1,1.1-1.1Z"/><path class="cls-47" d="m18.4,73.3s2.6,1.9,2.2,3.1c0,0-2.8-1.2-3.2-2.2s.1-1.4.1-1.4l.9.5Z"/><g class="cls-16"><rect class="cls-59" x="17.4" y="71.7" width="1.7" height="2"/></g><path class="cls-50" d="m13.8,60.6s5.4,1,7.6,3c2.3,2.1-2.1,8.9-2.1,8.9-.6-.1-1.2-.3-1.6-.8s2.6-5.1.4-6.6c-1.7-1.1-3.5-1.8-5.5-2.1l1.1-2.4c.1.2.1,0,.1,0Z"/><path class="cls-47" d="m20.1,75.7c-.6-.3-2.2-1.4-2.5-1.5s-.8.3-.8.3c-.1.2-.1.4,0,.6.6.8,1.5,1.4,2.4,1.7.6.2,1.3.1,1.8-.2-.3-.4-.7-.7-.9-.9"/><path class="cls-48" d="m19.2,76.8c-.9-.3-1.8-.9-2.4-1.7.1.4.4.7.7,1,1,.7,2.2,1.1,3.4,1.1.3,0,.3-.4.1-.7-.6.4-1.2.5-1.8.3"/><g class="cls-24"><rect class="cls-57" x="16.3" y="73.3" width="1.6" height="1.7"/></g><path class="cls-49" d="m8.6,59s-1.2,3.1,0,4.1,4,2.1,4.7,4,1.7,5.7,3.1,7c.5,0,1-.2,1.4-.5-.3-2.4-.8-4.7-1.4-7.1-.5-1.6-1.3-2.9-2.4-4-.4-.3-.3-.8-.1-1.2l.3-.8c0,.1-5.6-1.5-5.6-1.5Z"/><g class="cls-22"><polygon class="cls-58" points="15.6 58.1 16.8 52.4 22.1 53.6 20.9 59.1 15.6 58.1"/></g><g class="cls-21"><rect class="cls-52" x="20.8" y="55.3" width="5.3" height="2.8"/></g><g class="cls-19"><polygon class="cls-53" points="5.8 60.9 9 45.8 23.2 48.9 20 63.9 5.8 60.9"/></g><g class="cls-20"><rect class="cls-67" x="15.8" y="47.4" width="3.5" height="3.3"/></g><g class="cls-30"><polygon class="cls-68" points="2.3 58.1 4.8 46.7 14.7 48.9 12.2 60.1 2.3 58.1"/></g><g class="cls-29"><polygon class="cls-66" points="8.1 55.4 9.2 50.3 13.6 51.2 12.5 56.3 8.1 55.4"/></g><g class="cls-26"><polygon class="cls-65" points="7 55.6 18 54.8 18.4 59.8 7.3 60.6 7 55.6"/></g><g class="cls-27"><polygon class="cls-62" points="16.3 45.3 20.8 44.2 22.2 49.2 17.7 50.4 16.3 45.3"/></g><g class="cls-28"><polygon class="cls-63" points="15.3 44 22 42.1 23.5 47.3 16.7 49.1 15.3 44"/></g><g class="cls-25"><polygon class="cls-64" points="16.8 46 18.3 45.6 18.7 47.3 17.3 47.7 16.8 46"/></g><path class="cls-39" d="m31.7,77h0c.3-.1.4-.3.3-.5l-7.4-16.9c-.1-.2-.3-.3-.5-.2-.1,0-.2.1-.2.2v.3l7.4,16.9c.1.1.3.2.4.2"/><path class="cls-39" d="m23.3,77c.1,0,.3-.1.3-.2l7.5-16.9v-.3c0-.1-.1-.2-.2-.2-.2-.1-.4,0-.5.2l-7.4,16.9c-.1.2,0,.4.3.5h0"/><path class="cls-39" d="m10.4,77h0c.3-.1.4-.3.4-.4l-7.5-17c-.1-.2-.3-.3-.5-.2-.1,0-.2.1-.2.2v.3l7.5,16.9c.1.1.2.2.3.2"/><path class="cls-39" d="m1.9,77c.1,0,.2-.1.3-.2l7.5-16.9v-.3c0-.1-.1-.2-.2-.2-.2-.1-.4,0-.5.2l-7.4,16.9c-.1.2,0,.4.3.5h0"/><path class="cls-36" d="m.9,59.1c0-.1,0-.2.1-.3s.1-.1.2-.1h32.4c.1,0,.3.1.3.2.1.1.1.3,0,.4l-.4.9c-.1.2-.3.3-.5.3H1.5c-.2,0-.4-.2-.4-.4,0,0-.2-1-.2-1Z"/><path class="cls-43" d="m16.7,58.8h8.5c.1,0,.2,0,.3-.1s.1-.2.1-.3c0-.2-.2-.4-.4-.4h-8.5c-.1,0-.2,0-.3.1s-.1.2-.1.3c0,.3.2.4.4.4"/><path class="cls-49" d="m32.9,51.1h-7.1c-.5,0-1,.3-1.2.8l-3.2,7h8.8c.3,0,.6-.2.8-.5l2.5-6.5c.1-.2,0-.4-.1-.5s-.3-.3-.5-.3"/><path class="cls-44" d="m27.9,54.6c-.1.5,0,1,.3,1s.7-.2.8-.7,0-1-.3-1.1-.6.3-.8.8"/><g class="cls-33"><g class="cls-31"><path class="cls-45" d="m20.3606,9.2928h62.1c2.1-.0986,3.8,1.4795,3.9,3.3536v21.8971c-.1,2.0713-1.9,3.5509-3.9,3.3536h-47.3c-1.1,1.1836-2.3,2.2686-3.7,2.9591-3.3,1.8741-7.3,2.5645-11,2.0713,2.6-.9864,5-2.6632,6.6-5.0304h-6.8c-2.1.0986-3.8-1.4795-3.9-3.3536V12.745c.2-2.0713,1.9-3.5509,4-3.4522"/></g></g><path class="cls-35" d="m20.6,8.7h62.1c2.1-.1,3.8,1.5,3.9,3.4v22.2c-.1,2.1-1.9,3.5-3.9,3.4h-47.2c-1.1,1.2-2.3,2.3-3.6,3-3.3,1.9-7.3,2.5-11,2.1,2.6-1,5-2.7,6.6-5.1h-6.8c-2.1.1-3.8-1.5-3.9-3.4V12.2c.1-2.1,1.7-3.6,3.8-3.5"/></g></g><g id="Layer_2"><text class="cls-51" transform="translate(23.6528 25.1914)"><tspan class="cls-60" x="0" y="0">F</tspan><tspan x="3.4351" y="0">i</tspan><tspan class="cls-61" x="5.5498" y="0">v</tspan><tspan x="9.3374" y="0">err Animation</tspan></text></g></svg>